<svg width="247" height="47" viewBox="0 0 247 47" fill="none" xmlns="http://www.w3.org/2000/svg">
<path d="M18.9301 32.584C18.5984 32.584 18.2724 32.9684 17.9291 33.1635C15.7756 34.4202 13.4476 35.1719 10.9624 35.4703C8.94869 35.717 6.9524 35.6941 4.99103 35.1145C3.14607 34.5694 1.56302 33.6226 0.364087 32.1077C-0.0956987 31.5224 -0.118982 31.4077 0.288423 30.7937C0.84133 29.9559 1.59212 29.3304 2.49423 28.8943C4.23444 28.0451 6.09685 27.8213 8.01165 27.8844C8.04075 27.8844 8.06985 27.9131 8.10477 27.9303C8.11641 27.9648 8.12805 27.9992 8.13969 28.0336C7.93599 28.1082 7.73229 28.2 7.52277 28.2517C6.00955 28.6074 4.68839 29.3018 3.55347 30.3404C3.46617 30.4207 3.39633 30.5182 3.31485 30.6043C2.7212 31.247 2.69211 31.2527 3.39634 31.9126C4.67093 33.1061 6.24235 33.7546 7.95345 34.0988C9.26296 34.3628 10.5841 34.4087 11.9111 34.2997C14.1693 34.1103 16.3111 33.5078 18.3074 32.4405C18.3772 32.4004 18.4412 32.3487 18.5227 32.2913C17.9581 31.9413 17.3994 31.62 16.8698 31.2585C14.7688 29.8182 13.0402 28.0394 11.8354 25.8072C10.3688 23.0873 10.3572 20.2871 11.5153 17.4525C12.4989 15.0539 14.2508 13.3554 16.4624 12.0586C16.573 11.9955 16.6777 11.9266 16.7767 11.8635C16.282 11.4102 15.7756 11.0085 15.3449 10.538C13.6164 8.64437 13.4127 5.62036 14.7979 3.47429C15.7407 2.01106 17.0386 0.943762 18.5285 0.0830381C18.6798 -0.00303426 18.9592 -0.0317117 19.0989 0.0428843C20.8333 0.995419 22.3348 2.20042 23.237 3.99647C24.3661 6.25156 23.9237 9.01163 22.1544 10.8019C21.8052 11.1577 21.392 11.4561 20.9846 11.8004C21.3396 11.984 21.6888 12.1561 22.0264 12.3512C24.465 13.7686 26.2634 15.7023 27.02 18.4509C27.7824 21.2224 27.1481 23.6841 25.2449 25.8474C24.4766 26.7139 23.5571 27.3967 22.5909 28.0279C22.3989 28.1541 22.2301 28.1771 22.0206 28.0795C19.7798 27.0294 18.3481 25.3539 17.9407 22.9037C17.6206 20.9929 18.0513 19.1739 18.7148 17.3951C18.7555 17.286 18.8486 17.1885 18.9185 17.091C18.9476 17.0967 18.9825 17.1024 19.0116 17.1082C19.0232 17.1885 19.0523 17.2688 19.0465 17.3492C18.9999 18.9501 19.1164 20.5338 19.6052 22.0659C19.9777 23.2308 20.5539 24.2694 21.5666 25.0268C21.7412 25.1588 21.8576 25.1703 22.0264 25.0211C23.6269 23.6382 24.5639 21.9913 24.3486 19.7994C24.2438 18.7378 23.9354 17.7738 23.3359 16.8901C22.2825 15.3293 20.8507 14.1932 19.2211 13.2693C19.1047 13.2062 18.8835 13.2119 18.7671 13.2808C17.1492 14.1989 15.7349 15.3408 14.7222 16.9131C14.0529 17.9517 13.6455 19.0878 13.5058 20.31C13.209 22.9037 13.9481 25.2678 15.1936 27.5057C16.0841 29.1124 17.2074 30.5469 18.61 31.7577C18.6973 31.8323 18.7904 31.9011 18.8777 31.97M22.3174 5.95893C22.3058 5.78678 22.2941 5.51709 22.2766 5.24166C22.2708 5.16132 22.2592 5.07524 22.2417 4.9949C21.8401 3.07262 20.7285 1.61514 19.1862 0.433075C18.9243 0.232239 18.6973 0.249452 18.482 0.467503C17.9232 1.03558 17.3238 1.5807 16.8291 2.20042C15.7989 3.49151 15.2402 4.94901 15.473 6.63602C15.6941 8.25992 16.6254 9.39607 17.9698 10.2511C19.1105 10.9741 18.6624 10.9626 19.7915 10.2453C21.3163 9.26984 22.2767 7.93285 22.3174 5.95893Z" fill="#F58021"/>
<path d="M48.2924 32.0102C48.3739 31.9471 48.467 31.8782 48.5601 31.7979C49.9627 30.5872 51.086 29.1526 51.9765 27.5459C53.222 25.3023 53.9611 22.9439 53.6643 20.3503C53.5246 19.128 53.1114 17.9919 52.4479 16.9533C51.4352 15.381 50.0268 14.2334 48.403 13.321C48.2866 13.2522 48.0654 13.2464 47.949 13.3096C46.3194 14.2334 44.8876 15.3696 43.8342 16.9303C43.2347 17.814 42.839 18.778 42.7342 19.8396C42.5189 22.0316 43.5432 23.6784 45.1437 25.0613C45.3125 25.2105 45.4289 25.199 45.6035 25.067C46.6162 24.3096 47.1924 23.271 47.5649 22.1061C48.0596 20.5683 48.176 18.9903 48.1236 17.3894C48.1236 17.309 48.1469 17.2287 48.1585 17.1484C48.1876 17.1426 48.2225 17.1369 48.2516 17.1312C48.3215 17.2345 48.4146 17.3263 48.4553 17.4353C49.1246 19.2141 49.5495 21.0331 49.2294 22.9439C48.822 25.3941 47.3961 27.0697 45.1495 28.1197C44.94 28.2173 44.7771 28.1943 44.5792 28.0681C43.613 27.4369 42.6935 26.7541 41.9252 25.8876C40.0221 23.73 39.3877 21.2684 40.1501 18.4911C40.9067 15.7425 42.7051 13.803 45.1437 12.3914C45.4813 12.1964 45.8305 12.0299 46.1855 11.8406C45.7723 11.4906 45.3649 11.1922 45.0157 10.8421C43.2464 9.05183 42.8099 6.29179 43.9331 4.03669C44.8353 2.23491 46.3368 1.03562 48.0712 0.0830886C48.2109 0.00275433 48.4903 0.0371875 48.6416 0.12326C50.1315 0.983984 51.4294 2.05702 52.3722 3.51451C53.7574 5.66059 53.5537 8.68459 51.8252 10.5782C51.3945 11.0487 50.8881 11.4504 50.3934 11.9037C50.4924 11.9611 50.5971 12.0357 50.7077 12.0988C52.9252 13.3899 54.6712 15.0884 55.6548 17.4927C56.813 20.3331 56.8013 23.1276 55.3347 25.8474C54.1299 28.0796 52.3955 29.8641 50.3003 31.2987C49.7707 31.6602 49.212 31.9815 48.6474 32.3316C48.7289 32.3889 48.7929 32.4406 48.8627 32.4807C50.859 33.548 53.0008 34.1505 55.259 34.3399C56.586 34.4489 57.9071 34.403 59.2167 34.1391C60.9219 33.7948 62.4933 33.1521 63.7738 31.9528C64.478 31.2929 64.4489 31.2815 63.8553 30.6445C63.7738 30.5585 63.7039 30.4609 63.6166 30.3806C62.4817 29.342 61.1606 28.6419 59.6473 28.2862C59.4378 28.2345 59.2341 28.1427 59.0304 28.0681C59.042 28.0337 59.0537 27.9992 59.0653 27.9648C59.0944 27.9476 59.1235 27.9189 59.1526 27.9189C61.0674 27.8558 62.9299 28.0796 64.6701 28.9288C65.5722 29.3649 66.323 29.9961 66.8759 30.8282C67.2833 31.4421 67.26 31.5569 66.8002 32.1422C65.6013 33.6571 64.0182 34.6039 62.1732 35.149C60.2119 35.7285 58.2214 35.7515 56.2019 35.5048C53.7167 35.2006 51.3887 34.4547 49.2352 33.198C48.8977 32.9972 48.5659 32.6185 48.2342 32.6185M47.3961 10.2683C48.5194 10.9856 48.077 10.9971 49.2178 10.2741C50.5622 9.41908 51.4934 8.28293 51.7146 6.65903C51.9416 4.97201 51.3887 3.52025 50.3585 2.22343C49.8638 1.60371 49.2643 1.05859 48.7056 0.49051C48.4903 0.27246 48.2633 0.255247 48.0014 0.456083C46.459 1.63814 45.3474 3.09563 44.9458 5.01791C44.9284 5.09824 44.9167 5.18431 44.9109 5.26465C44.8935 5.53434 44.8818 5.80977 44.8702 5.98192C44.9051 7.95584 45.8654 9.29857 47.3961 10.2683Z" fill="#F58021"/>
<path d="M20.228 37.7196C19.9777 37.8114 19.7333 37.9262 19.4772 37.9835C17.6323 38.4139 16.0201 39.2689 14.6291 40.537C14.5243 40.6346 14.437 40.7551 14.3381 40.8641C13.6164 41.6445 13.5757 41.656 14.437 42.465C15.9968 43.9225 17.9174 44.7144 20.001 45.1333C21.5957 45.4546 23.2137 45.512 24.8317 45.3743C27.5904 45.1448 30.2036 44.4103 32.6422 43.1077C32.7295 43.0618 32.8052 42.9987 32.9099 42.9241C32.2173 42.4937 31.5364 42.1035 30.8904 41.6617C28.3295 39.9058 26.211 37.7253 24.7385 34.9997C22.946 31.6773 22.9285 28.2574 24.3486 24.7915C25.5475 21.8593 27.6893 19.7821 30.3898 18.2041C30.5237 18.1238 30.6576 18.0377 30.774 17.9688C30.1687 17.4122 29.5518 16.9245 29.028 16.3507C26.9153 14.0382 26.665 10.3486 28.3586 7.72622C29.511 5.94166 31.0941 4.63335 32.9158 3.58327C33.102 3.47425 33.4396 3.43983 33.6142 3.53737C35.7327 4.70222 37.566 6.17118 38.666 8.36889C40.0453 11.1232 39.5099 14.4973 37.3448 16.6835C36.9141 17.1139 36.4136 17.4811 35.9131 17.9057C36.3438 18.1352 36.7745 18.3418 37.1819 18.5771C40.1617 20.3043 42.3617 22.6741 43.2813 26.031C44.2125 29.4165 43.4384 32.4233 41.1104 35.0628C40.1734 36.1244 39.0501 36.9564 37.8686 37.7311C37.63 37.886 37.4263 37.9147 37.1761 37.7942C34.4348 36.5146 32.6946 34.4661 32.1941 31.4765C31.8041 29.141 32.3279 26.9261 33.1427 24.7514C33.1951 24.6136 33.3057 24.5046 33.393 24.3784C33.4279 24.3841 33.4687 24.3956 33.5036 24.4013C33.521 24.4989 33.5501 24.5964 33.5501 24.6997C33.4919 26.6564 33.6374 28.5844 34.2369 30.4608C34.6909 31.8839 35.3951 33.152 36.6348 34.0759C36.8501 34.2365 36.9898 34.248 37.1993 34.0701C39.1549 32.3774 40.412 30.369 40.1443 27.6893C40.0162 26.3925 39.5273 25.2161 38.7998 24.1374C37.5136 22.2323 35.7618 20.8379 33.7771 19.7132C33.6375 19.6329 33.3697 19.6444 33.2242 19.7247C31.2454 20.8437 29.5226 22.2438 28.2888 24.166C27.474 25.4342 26.9735 26.8228 26.7989 28.3147C26.4322 31.4822 27.3401 34.3685 28.8592 37.1056C29.9475 39.0681 31.3152 40.8182 33.0321 42.2986C33.1427 42.3904 33.2533 42.4765 33.3581 42.5569C34.0332 41.9486 34.6618 41.3346 35.3427 40.7838C37.9094 38.7238 40.8136 37.3983 44.1252 37.0195C48.3622 36.5318 52.0929 37.7139 55.3347 40.4223C55.7712 40.7895 56.1611 41.2084 56.5743 41.5986C56.778 41.7879 56.7955 41.9486 56.6151 42.1954C55.2474 44.0775 53.4024 45.3112 51.2257 46.1088C49.3924 46.7802 47.4892 47.0498 45.5511 46.9925C41.6691 46.8834 37.9908 45.9768 34.6327 43.9914C34.2194 43.7447 33.8179 43.2741 33.4105 43.2741C33.0031 43.2741 32.6015 43.7389 32.1882 43.9857C29.5576 45.5235 26.7174 46.4359 23.6793 46.8031C21.2174 47.1015 18.7846 47.0785 16.3868 46.367C14.1344 45.7014 12.1963 44.548 10.7296 42.6946C10.1651 41.983 10.1418 41.8396 10.6365 41.0936C11.3117 40.0722 12.2312 39.3091 13.3312 38.7754C15.4555 37.7425 17.7312 37.4671 20.0709 37.5417C20.1058 37.5417 20.1465 37.5761 20.1814 37.5934C20.1989 37.6335 20.2164 37.6737 20.228 37.7196ZM33.7015 42.8266C33.8353 42.9069 33.9052 42.9528 33.9808 42.9987C35.9946 44.1406 38.1655 44.8234 40.4469 45.1849C43.1824 45.6153 45.8945 45.5292 48.5601 44.7259C50.0384 44.2783 51.4061 43.6241 52.5177 42.5282C52.9484 42.1035 52.9484 42.0634 52.5236 41.6617C50.3934 39.6648 47.821 38.6664 44.9167 38.5344C42.1347 38.4082 39.5215 39.0853 37.0771 40.3821C35.8607 41.0362 34.7316 41.8109 33.7015 42.8266ZM37.5427 10.7502C37.5311 10.5437 37.5136 10.2108 37.4961 9.87803C37.4903 9.77475 37.4729 9.6772 37.4496 9.57391C36.9549 7.227 35.5988 5.44818 33.7131 4.00216C33.393 3.75542 33.1136 3.77837 32.8517 4.04806C32.1708 4.74238 31.4374 5.40801 30.8322 6.16544C29.575 7.74344 28.8941 9.52227 29.1735 11.5823C29.4412 13.5619 30.5819 14.9506 32.2232 15.9949C33.6142 16.8786 33.0729 16.8614 34.4464 15.9892C36.3205 14.7956 37.4961 13.1603 37.5427 10.7502Z" fill="#F26123"/>
<path d="M93.5988 14.0257C93.5988 14.4527 92.8926 15.5038 91.4802 17.179H91.1846C90.9656 17.0914 90.8288 16.7684 90.774 16.21C90.6536 15.0823 90.2649 14.1626 89.608 13.4509C88.9511 12.7283 88.1628 12.367 87.2431 12.367C86.3781 12.367 85.6336 12.6845 85.0095 13.3195C84.3854 13.9436 84.0734 14.6936 84.0734 15.5695C84.0734 16.2045 84.2705 16.8888 84.6646 17.6224C85.0588 18.345 86.0825 19.4946 87.7358 21.0712C89.4 22.6479 90.4675 23.907 90.9383 24.8486C91.4091 25.7792 91.6445 26.6661 91.6445 27.5091C91.6445 29.458 90.7959 31.177 89.0989 32.666C87.4128 34.1441 85.4365 34.8831 83.1701 34.8831C81.2979 34.8831 79.7541 34.4506 78.5388 33.5857C77.3235 32.7098 76.7158 31.9981 76.7158 31.4507C76.7158 31.1441 77.0498 30.4324 77.7176 29.3157C78.3855 28.1989 78.7687 27.6405 78.8673 27.6405C79.2176 27.6405 79.464 27.7445 79.6063 27.9525C79.7596 28.1496 79.8636 28.5219 79.9183 29.0693C80.0826 30.7773 80.4931 31.9543 81.1501 32.6003C81.8179 33.2463 82.6829 33.5693 83.7449 33.5693C84.9055 33.5693 85.9183 33.1696 86.7832 32.3704C87.6482 31.5602 88.0806 30.624 88.0806 29.562C88.0806 29.0146 87.9109 28.4343 87.5715 27.8212C87.2431 27.1971 86.296 26.146 84.7303 24.6679C83.1756 23.1789 82.1574 21.9198 81.6756 20.8906C81.1939 19.8614 80.953 18.8596 80.953 17.8851C80.953 16.1881 81.5935 14.6279 82.8745 13.2045C84.1555 11.7812 85.858 11.0695 87.9821 11.0695C89.5916 11.0695 90.9273 11.4418 91.9894 12.1863C93.0623 12.9199 93.5988 13.533 93.5988 14.0257ZM111.911 30.843C110.159 32.5072 108.905 33.5912 108.15 34.0948C107.394 34.5984 106.672 34.8503 105.982 34.8503C104.252 34.8503 103.436 33.3229 103.535 30.2682C102.44 31.8339 101.427 32.989 100.497 33.7335C99.5769 34.478 98.6243 34.8503 97.6389 34.8503C96.6754 34.8503 95.8543 34.4014 95.1754 33.5036C94.5076 32.5948 94.1736 31.4835 94.1736 30.1697C94.1736 28.5274 94.6225 26.9617 95.5203 25.4726C96.4291 23.9836 97.5896 22.7792 99.002 21.8596C100.414 20.9399 101.663 20.48 102.747 20.48C104.115 20.48 105.073 21.1096 105.621 22.3687L108.971 20.5129H109.891L108.445 25.3248C107.701 27.7445 107.329 29.4033 107.329 30.3011C107.329 31.2426 107.663 31.7134 108.33 31.7134C108.757 31.7134 109.228 31.489 109.743 31.0401C110.257 30.5802 110.98 29.885 111.911 28.9544V30.843ZM99.8889 31.7463C100.984 31.7463 102.013 30.8156 102.976 28.9544C103.951 27.0821 104.438 25.3577 104.438 23.7811C104.438 23.1679 104.301 22.6917 104.028 22.3522C103.754 22.0019 103.387 21.8267 102.927 21.8267C101.832 21.8267 100.792 22.7574 99.8068 24.6186C98.8323 26.4799 98.3451 28.1934 98.3451 29.7591C98.3451 30.3503 98.4874 30.8321 98.7721 31.2043C99.0677 31.5656 99.44 31.7463 99.8889 31.7463ZM121.37 30.843C119.991 32.2116 118.797 33.2244 117.79 33.8813C116.783 34.5273 115.825 34.8503 114.916 34.8503C113.974 34.8503 113.208 34.4561 112.617 33.6678C112.037 32.8685 111.746 31.8229 111.746 30.531C111.746 29.3923 112.02 27.8868 112.568 26.0146L113.29 23.5347L112.026 23.6004L112.551 21.022L114.111 20.9563L115.655 15.8323L120.057 14.929L118.381 20.6442L120.664 20.5129L120.122 23.042L117.577 23.2391L116.476 26.9179C116.104 28.1989 115.918 29.2171 115.918 29.9726C115.918 30.4872 116.044 30.9087 116.296 31.2372C116.558 31.5547 116.892 31.7134 117.297 31.7134C117.856 31.7134 118.409 31.5383 118.956 31.1879C119.504 30.8266 120.308 30.0821 121.37 28.9544V30.843ZM126.429 21.219C127.184 21.022 127.945 20.8632 128.712 20.7428C129.478 20.6114 129.938 20.5457 130.091 20.5457C130.201 20.5457 130.255 20.5895 130.255 20.6771C130.255 20.8413 130.212 21.011 130.124 21.1862C129.949 21.6898 129.861 22.1716 129.861 22.6314C129.861 23.2008 130.19 23.9781 130.847 24.9635C131.503 25.9489 131.832 26.8631 131.832 27.7062C131.832 29.3814 131.027 30.9963 129.418 32.551C127.819 34.1058 126.16 34.8831 124.442 34.8831C123.697 34.8831 123.018 34.686 122.405 34.2919C121.792 33.8977 121.485 33.4762 121.485 33.0273C121.485 32.7645 121.786 32.2664 122.389 31.5328C123.002 30.7992 123.44 30.4324 123.702 30.4324C124.053 30.4324 124.365 30.8813 124.639 31.7791C124.912 32.6769 125.383 33.1258 126.051 33.1258C126.719 33.1258 127.343 32.8193 127.923 32.2061C128.514 31.5821 128.81 30.9142 128.81 30.2025C128.81 29.5127 128.438 28.593 127.693 27.4434C126.949 26.2938 126.456 25.3303 126.215 24.5529C124.945 26.6004 123.336 28.6971 121.387 30.843H121.009V29.3649C123.692 26.5073 125.498 23.792 126.429 21.219ZM152.574 30.843C150.823 32.5072 149.569 33.5912 148.813 34.0948C148.058 34.5984 147.335 34.8503 146.646 34.8503C144.916 34.8503 144.1 33.3229 144.199 30.2682C143.104 31.8339 142.091 32.989 141.16 33.7335C140.241 34.478 139.288 34.8503 138.303 34.8503C137.339 34.8503 136.518 34.4014 135.839 33.5036C135.171 32.5948 134.837 31.4835 134.837 30.1697C134.837 28.5274 135.286 26.9617 136.184 25.4726C137.093 23.9836 138.253 22.7792 139.666 21.8596C141.078 20.9399 142.326 20.48 143.41 20.48C144.779 20.48 145.737 21.1096 146.284 22.3687L149.635 20.5129H150.554L149.109 25.3248C148.365 27.7445 147.992 29.4033 147.992 30.3011C147.992 31.2426 148.326 31.7134 148.994 31.7134C149.421 31.7134 149.892 31.489 150.407 31.0401C150.921 30.5802 151.644 29.885 152.574 28.9544V30.843ZM140.553 31.7463C141.647 31.7463 142.677 30.8156 143.64 28.9544C144.615 27.0821 145.102 25.3577 145.102 23.7811C145.102 23.1679 144.965 22.6917 144.691 22.3522C144.418 22.0019 144.051 21.8267 143.591 21.8267C142.496 21.8267 141.456 22.7574 140.471 24.6186C139.496 26.4799 139.009 28.1934 139.009 29.7591C139.009 30.3503 139.151 30.8321 139.436 31.2043C139.731 31.5656 140.104 31.7463 140.553 31.7463ZM168.702 30.843C166.173 33.5145 164.005 34.8503 162.198 34.8503C161.465 34.8503 160.874 34.593 160.425 34.0784C159.976 33.5638 159.751 32.874 159.751 32.0091C159.751 30.8375 160.233 29.0474 161.197 26.6387C161.711 25.3467 161.968 24.5256 161.968 24.1752C161.968 23.8249 161.832 23.6497 161.558 23.6497C161.405 23.6497 161.202 23.7263 160.95 23.8796C160.72 24.0329 160.452 24.2464 160.145 24.5201C159.872 24.7719 159.565 25.0785 159.226 25.4398C158.93 25.7464 158.613 26.0967 158.273 26.4909L157.354 27.5584C156.948 28.0511 156.697 28.5711 156.598 29.1186C156.434 30.0492 156.324 30.9032 156.27 31.6806C156.237 32.2609 156.22 33.0437 156.22 34.0291L152.591 34.8831C152.47 33.405 152.41 32.3047 152.41 31.5821C152.41 29.8193 152.613 28.1496 153.018 26.573C153.434 24.9964 154.096 23.2227 155.005 21.2519L159.012 20.48C158.169 22.7464 157.616 24.5311 157.354 25.834C159.149 23.8303 160.572 22.4453 161.624 21.6789C162.686 20.9015 163.627 20.5129 164.448 20.5129C165.007 20.5129 165.472 20.7264 165.844 21.1534C166.217 21.5694 166.403 22.0949 166.403 22.73C166.403 23.7811 165.932 25.511 164.99 27.9197C164.344 29.573 164.021 30.6459 164.021 31.1386C164.021 31.7956 164.29 32.124 164.826 32.124C165.625 32.124 166.917 31.0675 168.702 28.9544V30.843ZM184.829 30.843C183.439 32.2992 181.775 33.3722 179.837 34.062C178.928 36.8977 177.773 39.082 176.372 40.6148C174.981 42.1476 173.503 42.914 171.937 42.914C171.083 42.914 170.393 42.6458 169.868 42.1093C169.342 41.5728 169.08 40.8666 169.08 39.9907C169.08 38.8192 169.6 37.7681 170.64 36.8375C171.691 35.9068 173.47 35.009 175.977 34.1441L176.684 30.9087C175.632 32.0912 174.724 32.9616 173.957 33.52C173.191 34.0674 172.419 34.3411 171.642 34.3411C170.733 34.3411 169.988 33.9141 169.408 33.0601C168.828 32.2061 168.538 31.0948 168.538 29.7262C168.538 27.4927 169.386 25.4015 171.083 23.4526C172.791 21.4928 174.603 20.5129 176.519 20.5129C177.581 20.5129 178.523 20.9618 179.344 21.8596C179.837 21.6844 180.477 21.4216 181.266 21.0712L182.432 20.5457H182.809C182.382 21.8377 182.054 23.0968 181.824 24.323L180.28 32.551C181.758 31.9926 183.275 30.7937 184.829 28.9544V30.843ZM174.253 31.385C175.03 31.385 175.72 30.9251 176.322 30.0054C176.924 29.0857 177.39 27.9197 177.718 26.5073C178.058 25.0949 178.227 24.115 178.227 23.5676C178.227 23.053 178.096 22.6314 177.833 22.303C177.581 21.9636 177.264 21.7939 176.881 21.7939C175.72 21.7939 174.707 22.5767 173.842 24.1424C172.977 25.708 172.545 27.3011 172.545 28.9215C172.545 29.677 172.698 30.2792 173.005 30.7281C173.322 31.166 173.738 31.385 174.253 31.385ZM175.632 35.5893C172.096 36.8594 170.328 38.3265 170.328 39.9907C170.328 40.4834 170.476 40.883 170.771 41.1896C171.067 41.5071 171.445 41.6659 171.904 41.6659C172.693 41.6659 173.377 41.1677 173.957 40.1714C174.538 39.175 175.096 37.6477 175.632 35.5893Z" fill="#F26123"/>
<path d="M201.992 14.0257C201.992 14.4527 201.285 15.5038 199.873 17.179H199.577C199.358 17.0914 199.222 16.7684 199.167 16.21C199.046 15.0823 198.658 14.1626 198.001 13.4509C197.344 12.7283 196.556 12.367 195.636 12.367C194.771 12.367 194.026 12.6845 193.402 13.3195C192.778 13.9436 192.466 14.6936 192.466 15.5695C192.466 16.2045 192.663 16.8888 193.057 17.6224C193.452 18.345 194.475 19.4946 196.129 21.0712C197.793 22.6479 198.86 23.907 199.331 24.8486C199.802 25.7792 200.037 26.6661 200.037 27.5091C200.037 29.458 199.189 31.177 197.492 32.666C195.806 34.1441 193.829 34.8831 191.563 34.8831C189.691 34.8831 188.147 34.4506 186.932 33.5857C185.716 32.7098 185.109 31.9981 185.109 31.4507C185.109 31.1441 185.443 30.4324 186.11 29.3157C186.778 28.1989 187.162 27.6405 187.26 27.6405C187.61 27.6405 187.857 27.7445 187.999 27.9525C188.152 28.1496 188.256 28.5219 188.311 29.0693C188.475 30.7773 188.886 31.9543 189.543 32.6003C190.211 33.2463 191.076 33.5693 192.138 33.5693C193.298 33.5693 194.311 33.1696 195.176 32.3704C196.041 31.5602 196.473 30.624 196.473 29.562C196.473 29.0146 196.304 28.4343 195.964 27.8212C195.636 27.1971 194.689 26.146 193.123 24.6679C191.568 23.1789 190.55 21.9198 190.068 20.8906C189.587 19.8614 189.346 18.8596 189.346 17.8851C189.346 16.1881 189.986 14.6279 191.267 13.2045C192.548 11.7812 194.251 11.0695 196.375 11.0695C197.984 11.0695 199.32 11.4418 200.382 12.1863C201.455 12.9199 201.992 13.533 201.992 14.0257ZM214.72 30.843C213.329 32.2116 212.081 33.2244 210.975 33.8813C209.869 34.5273 208.648 34.8503 207.313 34.8503C205.824 34.8503 204.619 34.374 203.7 33.4215C202.791 32.4689 202.337 31.2153 202.337 29.6605C202.337 27.3394 203.141 25.2427 204.751 23.3705C206.36 21.4873 208.145 20.5457 210.105 20.5457C211.123 20.5457 211.939 20.8085 212.552 21.334C213.165 21.8596 213.471 22.5493 213.471 23.4033C213.471 25.6697 211.063 27.5091 206.245 28.9215C206.683 31.0565 207.827 32.124 209.678 32.124C210.4 32.124 211.09 31.9324 211.747 31.5492C212.404 31.1551 213.395 30.2901 214.72 28.9544V30.843ZM206.114 27.8047C208.917 27.0164 210.318 25.5602 210.318 23.4362C210.318 22.3851 209.935 21.8596 209.169 21.8596C208.446 21.8596 207.756 22.4125 207.099 23.5183C206.442 24.6132 206.114 26.042 206.114 27.8047ZM229.468 30.843C228.964 31.281 228.455 31.593 227.94 31.7791C227.426 31.9653 227.026 32.0583 226.741 32.0583C225.942 32.0583 225.154 31.7518 224.376 31.1386C222.428 33.6131 220.364 34.8503 218.185 34.8503C217.046 34.8503 216.154 34.4616 215.508 33.6842C214.873 32.8959 214.555 31.801 214.555 30.3996C214.555 28.8558 214.939 26.9617 215.705 24.7172L216.855 21.3504L221.322 20.5129L219.334 26.4416C219.126 27.0876 218.929 27.854 218.743 28.7409C218.557 29.6277 218.464 30.2627 218.464 30.6459C218.464 31.2372 218.617 31.7353 218.924 32.1404C219.241 32.5346 219.625 32.7317 220.074 32.7317C221.125 32.7317 222.258 31.8339 223.473 30.0383C222.915 28.9215 222.636 27.7993 222.636 26.6715C222.636 25.1059 223.046 23.6935 223.867 22.4344C224.699 21.1753 225.608 20.5457 226.594 20.5457C227.338 20.5457 227.71 21.1205 227.71 22.2701C227.71 24.4927 226.813 27.0602 225.017 29.9726C225.575 30.4872 226.161 30.7445 226.774 30.7445C227.519 30.7445 228.416 30.1478 229.468 28.9544V30.843ZM247.008 30.843C245.256 32.5072 244.002 33.5912 243.247 34.0948C242.491 34.5984 241.769 34.8503 241.079 34.8503C239.349 34.8503 238.533 33.3229 238.632 30.2682C237.537 31.8339 236.524 32.989 235.593 33.7335C234.674 34.478 233.721 34.8503 232.736 34.8503C231.772 34.8503 230.951 34.4014 230.272 33.5036C229.604 32.5948 229.271 31.4835 229.271 30.1697C229.271 28.5274 229.719 26.9617 230.617 25.4726C231.526 23.9836 232.687 22.7792 234.099 21.8596C235.511 20.9399 236.759 20.48 237.843 20.48C239.212 20.48 240.17 21.1096 240.717 22.3687L244.068 20.5129H244.987L243.542 25.3248C242.798 27.7445 242.425 29.4033 242.425 30.3011C242.425 31.2426 242.759 31.7134 243.427 31.7134C243.854 31.7134 244.325 31.489 244.84 31.0401C245.354 30.5802 246.077 29.885 247.008 28.9544V30.843ZM234.986 31.7463C236.081 31.7463 237.11 30.8156 238.073 28.9544C239.048 27.0821 239.535 25.3577 239.535 23.7811C239.535 23.1679 239.398 22.6917 239.124 22.3522C238.851 22.0019 238.484 21.8267 238.024 21.8267C236.929 21.8267 235.889 22.7574 234.904 24.6186C233.929 26.4799 233.442 28.1934 233.442 29.7591C233.442 30.3503 233.584 30.8321 233.869 31.2043C234.165 31.5656 234.537 31.7463 234.986 31.7463Z" fill="#F58021"/>
</svg>
